<?xml version="1.0" encoding="UTF-8" standalone="no"?>
<svg
   xmlns:dc="http://purl.org/dc/elements/1.1/"
   xmlns:cc="http://creativecommons.org/ns#"
   xmlns:rdf="http://www.w3.org/1999/02/22-rdf-syntax-ns#"
   xmlns:svg="http://www.w3.org/2000/svg"
   xmlns="http://www.w3.org/2000/svg"
   viewBox="0 0 512 512"
   version="1.1"
   id="svg10">
  <metadata
     id="metadata16">
    <rdf:RDF>
      <cc:Work
         rdf:about="">
        <dc:format>image/svg+xml</dc:format>
        <dc:type
           rdf:resource="http://purl.org/dc/dcmitype/StillImage" />
        <dc:title></dc:title>
      </cc:Work>
    </rdf:RDF>
  </metadata>
  <defs
     id="defs14" />
  <path
     d="m451.7 99.72-71.4-71.44c-15.6-15.55-46.3-28.28-68.3-28.28h-240c-22 0-40 18-40 40v432c0 22 18 40 40 40h368c22 0 40-18 40-40v-304c0-22-12.7-52.7-28.3-68.28z"
     id="path2" />
  <path
     d="m448 472c0 4.3-3.7 8-8 8h-368c-4.34 0-8-3.7-8-8v-432c0-4.34 3.66-8 8-8h240c2.4 0 5.1.30 8 .85v127.2h127.1c.6 2.9.9 5.6.9 8v304z"
     id="path4"
     fill="#fff" />
  <path
     fill="#fff"
     d="m429.1 122.3c1.6 1.6 3.1 3.5 4.6 5.7h-81.7v-81.73c2.2 1.52 4.1 3.08 5.7 4.64l71.4 71.39z"
     id="path8" />
  <path
     style="fill:#000000;fill-opacity:1;stroke:#ffffff;stroke-width:0.30748221"
     d="m 82.523838,176.52251 v 130.70015 h 78.015012 v -52.79342 h 53.4445 v -77.36165 c -43.78688,-0.0485 -87.594,-0.18521 -131.459512,-0.54508 z m 347.336352,0 c -63.03134,0.34566 -126.06834,0.57149 -189.15458,0.5748 v 77.33193 h 53.44451 v 52.79342 c 88.61201,-0.12026 3.10399,-0.009 135.83728,-0.63921 -0.0415,-43.32711 -0.12726,-86.65288 -0.12726,-130.06094 z M 187.26108,280.82596 v 79.18521 h 80.16678 v -79.18521 z m 242.73161,52.54071 c -131.50287,0.2548 -80.55281,0.44906 -135.84257,0.24787 v 52.79343 h -53.44451 v 77.1237 h 155.23503 c 18.31655,0.31714 34.59793,-15.22258 33.91955,-32.34798 0.13025,-32.64168 0.14465,-65.23298 0.13242,-97.81702 z m -347.468852,0.24787 v 97.56922 c -0.678392,17.12543 16.28139,32.98229 34.597962,32.34801 h 96.86155 v -77.1238 h -53.4445 v -52.79343 z"
     id="path92" />
</svg>
