<?xml version="1.0" encoding="UTF-8" standalone="no"?>
<svg
   xmlns:dc="http://purl.org/dc/elements/1.1/"
   xmlns:cc="http://creativecommons.org/ns#"
   xmlns:rdf="http://www.w3.org/1999/02/22-rdf-syntax-ns#"
   xmlns:svg="http://www.w3.org/2000/svg"
   xmlns="http://www.w3.org/2000/svg"
   width="146.52644"
   height="184.38548"
   id="svg3713"
   version="1.1">
  <defs
     id="defs3715" />
  <metadata
     id="metadata3718">
    <rdf:RDF>
      <cc:Work
         rdf:about="">
        <dc:format>image/svg+xml</dc:format>
        <dc:type
           rdf:resource="http://purl.org/dc/dcmitype/StillImage" />
        <dc:title></dc:title>
      </cc:Work>
    </rdf:RDF>
  </metadata>
  <g
     id="layer1"
     transform="translate(21.837279,71.904794)">
    <path
       style="fill:#336699;stroke:#060709;stroke-width:0.11718750000000000"
       d="m -21.774779,-50.842294 c 0.125,-11 9.875,-20.75 20.87499955,-20.875 27.00000045,-0.125 54.12500045,0 81.25000345,-0.125 0.25,7 -0.25,14 0.375,20.875 1.375,13 12.75,24.125 25.749996,25.125 6,0.25 12,0 18.125,0 0,37.500003 -0.125,75.000003 0,112.500003 0.125,4.5 -0.125,9.25 -2.25,13.375001 -3.5,7.5 -11.375,12.5 -19.625,12.375 -34.249999,0 -68.374999,0 -102.62499945,0 -11.24999955,0.375 -21.62499955,-9.375 -21.87499955,-20.750001 0,-47.5 0,-95.0000031 0,-142.500003 z"
       id="path6" />
    <path
       style="fill:#336699;stroke:#060709;stroke-width:0.11718750000000000"
       d="m 87.475224,-71.842294 c 12.5,13 24.749996,26 36.999996,39.125 -5.5,0 -11.125,0.125 -16.625,0 -10.249996,-0.375 -19.374996,-9.125 -20.249996,-19.25 -0.5,-6.625 -0.25,-13.25 -0.125,-19.875 z"
       id="path16" />
    <path
       id="path92"
       transform="translate(-21.837279,-71.904794)"
       d="M 9.1875 62.0625 L 9.1875 113.57812 L 37.9375 113.57812 L 37.9375 92.769531 L 57.632812 92.769531 L 57.632812 62.277344 C 41.496525 62.258254 25.352776 62.204301 9.1875 62.0625 z M 137.1875 62.0625 C 113.95926 62.198736 90.728942 62.287753 67.480469 62.289062 L 67.480469 92.769531 L 87.175781 92.769531 L 87.175781 113.57812 C 119.83097 113.53072 88.319664 113.57545 137.23438 113.32617 C 137.21912 96.248739 137.1875 79.17184 137.1875 62.0625 z M 47.785156 103.17383 L 47.785156 134.38477 L 77.328125 134.38477 L 77.328125 103.17383 L 47.785156 103.17383 z M 137.23633 123.88281 C 88.775042 123.98324 107.5511 124.05981 87.175781 123.98047 L 87.175781 144.78906 L 67.480469 144.78906 L 67.480469 175.1875 L 124.6875 175.1875 C 131.4375 175.3125 137.4375 169.1875 137.1875 162.4375 C 137.23551 149.57175 137.24083 136.72585 137.23633 123.88281 z M 9.1875 123.98047 L 9.1875 162.4375 C 8.9375 169.1875 15.1875 175.4375 21.9375 175.1875 L 57.632812 175.1875 L 57.632812 144.78906 L 37.9375 144.78906 L 37.9375 123.98047 L 9.1875 123.98047 z "
       style="fill:#ffffff;stroke:#ffffff;stroke-width:0.1171875" />
    <text
       xml:space="preserve"
       style="font-style:normal;font-variant:normal;font-weight:bold;font-stretch:normal;font-size:40px;line-height:0%;font-family:Arial;-inkscape-font-specification:'Arial Bold';letter-spacing:0px;word-spacing:0px;fill:#000000;fill-opacity:1;stroke:none"
       x="-7.2918243"
       y="-27.519312"
       id="text3912"><tspan
         id="tspan3914"
         x="-7.2918243"
         y="-27.519312"
         style="font-size:36px;fill:#eeeeee">DWG</tspan></text>
  </g>
</svg>
