<?xml version="1.0" encoding="UTF-8" standalone="no"?>
<!-- Created with Inkscape (http://www.inkscape.org/) -->

<svg
   xmlns:dc="http://purl.org/dc/elements/1.1/"
   xmlns:cc="http://creativecommons.org/ns#"
   xmlns:rdf="http://www.w3.org/1999/02/22-rdf-syntax-ns#"
   xmlns:svg="http://www.w3.org/2000/svg"
   xmlns="http://www.w3.org/2000/svg"
   xmlns:sodipodi="http://sodipodi.sourceforge.net/DTD/sodipodi-0.dtd"
   xmlns:inkscape="http://www.inkscape.org/namespaces/inkscape"
   width="146.52644"
   height="184.38548"
   id="svg3713"
   version="1.1"
   inkscape:version="0.48.4 r9939"
   sodipodi:docname="gif.svg">
  <defs
     id="defs3715" />
  <sodipodi:namedview
     id="base"
     pagecolor="#ffffff"
     bordercolor="#666666"
     borderopacity="1.0"
     inkscape:pageopacity="0.0"
     inkscape:pageshadow="2"
     inkscape:zoom="2.75"
     inkscape:cx="8.6628367"
     inkscape:cy="84.574512"
     inkscape:current-layer="layer1"
     showgrid="true"
     inkscape:document-units="px"
     inkscape:grid-bbox="true"
     fit-margin-top="0"
     fit-margin-left="0"
     fit-margin-right="0"
     fit-margin-bottom="0"
     showguides="true"
     inkscape:guide-bbox="true"
     inkscape:window-width="1024"
     inkscape:window-height="648"
     inkscape:window-x="0"
     inkscape:window-y="58"
     inkscape:window-maximized="1">
    <sodipodi:guide
       orientation="0,1"
       position="129.09091,9.0909091"
       id="guide4761" />
    <sodipodi:guide
       orientation="0,1"
       position="160.72727,122.54545"
       id="guide4763" />
    <sodipodi:guide
       orientation="0,1"
       position="154.90909,140"
       id="guide4765" />
    <sodipodi:guide
       orientation="1,0"
       position="18.545455,140"
       id="guide4767" />
    <sodipodi:guide
       orientation="1,0"
       position="8.3636364,40.626499"
       id="guide4769" />
    <sodipodi:guide
       orientation="1,0"
       position="137.45455,40.626499"
       id="guide4771" />
    <sodipodi:guide
       orientation="0,1"
       position="47.272727,66"
       id="guide4777" />
    <sodipodi:guide
       orientation="1,0"
       position="72.909091,58.909091"
       id="guide4793" />
    <sodipodi:guide
       orientation="0,1"
       position="-21.090909,161.45455"
       id="guide4810" />
    <sodipodi:guide
       orientation="1,0"
       position="-183.27273,186.90909"
       id="guide4812" />
    <sodipodi:guide
       orientation="1,0"
       position="-105.45455,161.45455"
       id="guide4814" />
    <sodipodi:guide
       orientation="1,0"
       position="111.27273,40.626499"
       id="guide4818" />
    <sodipodi:guide
       orientation="0,1"
       position="206.54545,27.636364"
       id="guide4820" />
    <sodipodi:guide
       orientation="0,1"
       position="226.90909,106.18182"
       id="guide4822" />
    <sodipodi:guide
       orientation="1,0"
       position="33.454545,27.636364"
       id="guide4824" />
  </sodipodi:namedview>
  <metadata
     id="metadata3718">
    <rdf:RDF>
      <cc:Work
         rdf:about="">
        <dc:format>image/svg+xml</dc:format>
        <dc:type
           rdf:resource="http://purl.org/dc/dcmitype/StillImage" />
        <dc:title />
      </cc:Work>
    </rdf:RDF>
  </metadata>
  <g
     id="layer1"
     inkscape:label="Layer 1"
     inkscape:groupmode="layer"
     transform="translate(21.837279,71.904794)">
    <path
       style="fill:#336699;stroke:#060709;stroke-width:0.11718750000000000"
       inkscape:connector-curvature="0"
       d="m -21.774779,-50.842294 c 0.125,-11 9.875,-20.75 20.87499955,-20.875 27.00000045,-0.125 54.12500045,0 81.25000345,-0.125 0.25,7 -0.25,14 0.375,20.875 1.375,13 12.75,24.125 25.749996,25.125 6,0.25 12,0 18.125,0 0,37.500003 -0.125,75.000003 0,112.500003 0.125,4.5 -0.125,9.25 -2.25,13.375001 -3.5,7.5 -11.375,12.5 -19.625,12.375 -34.249999,0 -68.374999,0 -102.62499945,0 -11.24999955,0.375 -21.62499955,-9.375 -21.87499955,-20.750001 0,-47.5 0,-95.0000031 0,-142.500003 z"
       id="path6" />
    <path
       style="fill:#336699;stroke:#060709;stroke-width:0.11718750000000000"
       inkscape:connector-curvature="0"
       d="m 87.475224,-71.842294 c 12.5,13 24.749996,26 36.999996,39.125 -5.5,0 -11.125,0.125 -16.625,0 -10.249996,-0.375 -19.374996,-9.125 -20.249996,-19.25 -0.5,-6.625 -0.25,-13.25 -0.125,-19.875 z"
       id="path16" />
    <path
       style="fill:#ffffff;stroke:#ffffff;stroke-width:0.1171875"
       inkscape:connector-curvature="0"
       d="m -12.649779,-9.8422941 c 42.75,0.375 85.375,0.25 127.999999,0 0,33.5000031 0.125,66.8750031 0,100.3750031 0.25,6.75 -5.75,12.875001 -12.5,12.750001 -34.249999,0 -68.499999,0 -102.74999945,0 -6.75000005,0.25 -12.99999955,-6.000001 -12.74999955,-12.750001 0,-33.5 0,-66.875 0,-100.3750031 z"
       id="path92" />
    <path
       style="fill:#ffffff;stroke:#ffffff;stroke-width:0.1171875"
       inkscape:connector-curvature="0"
       d="m 13.100221,16.657709 c 25.5,0 51,0 76.500003,0 0,20 0,39.875 0,59.875 -25.500003,-0.125 -51.000003,0 -76.500003,0 0,-20 0,-39.875 0,-59.875 z"
       id="path120" />
    <path
       style="fill:#fefefe;stroke:#fefefe;stroke-width:0.1171875"
       inkscape:connector-curvature="0"
       d="m 53.600221,51.282709 c 1.5,-1.75 3.375,-3.125 5.625,-3.75 -1.875,5.375 -6.75,9.625 -11.75,12 0.5,-3.625 3.75,-5.75 6.125,-8.25 z"
       id="path142" />
    <path
       style="fill:#fefefe;stroke:#fefefe;stroke-width:0.1171875"
       inkscape:connector-curvature="0"
       d="m 33.100221,60.657709 c 0.625,0.625 1.25,1.25 1.875,1.875 -2.375,2.5 -4.875,5.125 -7.625,7.375 -0.375,-0.5 -1.25,-1.25 -1.75,-1.75 2.375,-2.625 5,-5 7.5,-7.5 z"
       id="path156" />
    <text
       xml:space="preserve"
       style="font-size:40px;font-style:normal;font-variant:normal;font-weight:bold;font-stretch:normal;line-height:125%;letter-spacing:0px;word-spacing:0px;fill:#000000;fill-opacity:1;stroke:none;font-family:Arial;-inkscape-font-specification:Arial Bold"
       x="-3.2918241"
       y="-27.519312"
       id="text3912"
       sodipodi:linespacing="125%"><tspan
         sodipodi:role="line"
         id="tspan3914"
         x="-3.2918241"
         y="-27.519312"
         style="font-size:36px;fill:#eeeeee">GIF</tspan></text>
    <g
       transform="matrix(0.637875,0,0,0.637875,-30.955023,-37.364885)"
       id="g3141"
       style="fill:#336699">
      <g
         id="g5186"
         style="fill:#336699">
        <path
           d="m 69.4,92.5 c 2.2,-0.4 4.4,-0.5 6.5,-0.5 33.7,0 67.4,0 101.1,0 3.8,0.1 7.9,-0.7 11.3,1.5 -0.4,16.1 -0.1,32.1 -0.6,48.2 -1.7,7.9 -0.1,16.4 -3.6,23.9 -4.3,-5.6 -4.4,-13.4 -9.4,-18.6 -2.1,-3.1 -3.9,-6.6 -6.9,-8.8 -2.6,-1.8 -5.9,-1.2 -8.8,-1 3.6,-2.5 8.5,-1.6 11.6,1.2 2.4,2.3 4.7,4.7 7.3,6.8 4.5,-5.6 7.3,-12.4 7.6,-19.6 0.4,-10.3 2.4,-20.7 0.7,-30.9 -5.6,-2.8 -12.3,-0.8 -18.4,-1.3 -11,0 -22.1,-0.8 -33.1,-0.2 C 119.5,92.6 104.2,93.2 89,93.1 82.5,93 75.9,93.4 69.4,92.5 z"
           id="path76"
           inkscape:connector-curvature="0"
           style="fill:#336699;fill-opacity:1;stroke:#000000;stroke-width:0.09375000000000000;stroke-opacity:1" />
        <path
           d="m 66.8,95.7 c 0.8,-1.2 1.7,-2.2 2.6,-3.2 -2.7,6.2 -1.6,13 -1.7,19.5 0.1,10.2 -0.2,20.5 0.4,30.7 -0.6,9.7 -0.4,19.4 0.3,29.1 -0.2,2.8 2.7,3.4 4.7,4.4 1.6,-5.4 1.8,-11.1 4.1,-16.1 -0.5,3.5 -1.1,7.1 -1.5,10.7 -0.2,2.1 -0.5,4.2 -0.7,6.3 -3,0 -6.3,-0.2 -8.2,-2.9 0.4,-8.3 0.2,-16.6 0.1,-25 0.1,-9.3 0.1,-18.7 0.1,-28 -0.1,-8.5 0.2,-17 -0.2,-25.5 z"
           id="path78"
           inkscape:connector-curvature="0"
           style="fill:#336699;fill-opacity:1;stroke:#000000;stroke-width:0.09375000000000000;stroke-opacity:1" />
        <path
           d="m 69.4,92.5 c 6.5,0.9 13.1,0.5 19.6,0.6 15.2,0.1 30.5,-0.5 45.7,0.1 5.2,0.6 10.5,0.7 15.3,3.1 -0.7,8.7 -3.8,17.2 -8.3,24.7 -5.8,-1.3 -12,-5.5 -17.8,-2.1 -6.7,4.3 -10.5,12.5 -10.9,20.3 -0.1,0.5 -0.5,1.3 -0.6,1.8 -1.9,4.4 -2.6,9.3 -5.1,13.3 -0.7,1.4 -2.4,1.2 -3.7,1.6 -2.3,-4.3 -4.3,-9.1 -8.1,-12.4 -3.8,-3.4 -10.2,-2.1 -13.4,1.6 -3,3.5 -4.8,7.9 -7.4,11.6 -1.1,0 -2.3,0 -3.4,0.1 -1.4,-4.6 -2.3,-9.4 -3.2,-14.1 -0.6,-10.2 -0.3,-20.5 -0.4,-30.7 0.1,-6.5 -1,-13.3 1.7,-19.5 z"
           id="path80"
           inkscape:connector-curvature="0"
           style="fill:#336699;stroke:#000000;stroke-width:0.09375000000000000;stroke-opacity:1" />
        <path
           d="m 134.7,93.2 c 11,-0.6 22.1,0.2 33.1,0.2 3.1,0.4 6.1,1.4 9,2.6 -0.3,0.8 -0.6,1.6 -0.9,2.5 -5.2,-1.6 -11.4,-3.4 -16.2,0.2 -5.1,3.2 -6.6,10.3 -3.8,15.5 1.8,3.1 5.6,4.4 7.8,7.3 1.7,4.6 -2,9 -5.2,11.9 -4.4,3.7 -8.2,7.9 -12.4,11.7 -2,-5 -3,-10.4 -4.5,-15.5 -0.6,-2.3 -2,-4.2 -3.7,-5.7 -2.1,-2.1 -4.7,-4.3 -7.9,-4.4 -3.6,-0.2 -7.1,1.4 -9.3,4.2 -3.6,4.4 -4.7,10.2 -6.9,15.3 l -0.8,0.2 c 0.4,-7.8 4.2,-16 10.9,-20.3 5.8,-3.4 12,0.8 17.8,2.1 4.5,-7.5 7.6,-16 8.3,-24.7 -4.8,-2.4 -10.1,-2.5 -15.3,-3.1 z"
           id="path82"
           inkscape:connector-curvature="0"
           style="fill:#336699;fill-opacity:1;stroke:#00d3db;stroke-width:0.09375000000000000" />
        <path
           d="m 167.8,93.4 c 6.1,0.5 12.8,-1.5 18.4,1.3 1.7,10.2 -0.3,20.6 -0.7,30.9 -0.3,7.2 -3.1,14 -7.6,19.6 -2.6,-2.1 -4.9,-4.5 -7.3,-6.8 -3.1,-2.8 -8,-3.7 -11.6,-1.2 -5,2.4 -8.5,6.9 -12,11.1 -0.9,-0.3 -1.8,-0.6 -2.7,-1 -2,-7.8 -2.9,-16 -6.4,-23.4 1.7,1.5 3.1,3.4 3.7,5.7 1.5,5.1 2.5,10.5 4.5,15.5 4.2,-3.8 8,-8 12.4,-11.7 3.2,-2.9 6.9,-7.3 5.2,-11.9 -2.2,-2.9 -6,-4.2 -7.8,-7.3 -2.8,-5.2 -1.3,-12.3 3.8,-15.5 4.8,-3.6 11,-1.8 16.2,-0.2 0.3,-0.9 0.6,-1.7 0.9,-2.5 -2.9,-1.2 -5.9,-2.2 -9,-2.6 m -4.4,5.2 c -3.4,1.1 -6.5,3.9 -7.2,7.5 -1.5,5.7 2.9,11.9 8.8,12.3 5.9,0.9 11.6,-4.5 11.1,-10.4 0.1,-6.2 -6.8,-11.2 -12.7,-9.4 z"
           id="path84"
           inkscape:connector-curvature="0"
           style="fill:#336699;fill-opacity:1;stroke:#000000;stroke-width:0.09375000000000000;stroke-opacity:1" />
        <path
           d="m 188.3,93.5 c 1.2,5.5 0.6,11.1 0.7,16.7 -0.1,11 0,22 0.1,33.1 -0.3,9.9 0,19.8 -0.1,29.7 -0.1,0.4 -0.3,1.3 -0.5,1.7 -1.4,-11 0.4,-22 -0.8,-33 0.5,-16.1 0.2,-32.1 0.6,-48.2 z"
           id="path86"
           inkscape:connector-curvature="0"
           style="fill:#336699;fill-opacity:1;stroke:#000000;stroke-width:0.09375000000000000;stroke-opacity:1" />
        <path
           d="m 163.4,98.6 c 5.9,-1.8 12.8,3.2 12.7,9.4 0.5,5.9 -5.2,11.3 -11.1,10.4 -5.9,-0.4 -10.3,-6.6 -8.8,-12.3 0.7,-3.6 3.8,-6.4 7.2,-7.5 z"
           id="path90"
           inkscape:connector-curvature="0"
           style="fill:#eeeeee;stroke:#f4f4f5;stroke-width:0.09375000000000000" />
        <path
           d="m 113,139.2 0.8,-0.2 c 0.5,1.3 0.1,2.7 -0.6,3.8 -0.2,-0.4 -0.6,-1.4 -0.8,-1.8 0.1,-0.5 0.5,-1.3 0.6,-1.8 z"
           id="path102"
           inkscape:connector-curvature="0"
           style="fill:#336699;fill-opacity:1;stroke:#000000;stroke-width:0.09375000000000000;stroke-opacity:1" />
        <path
           d="m 107.3,154.3 c 2.5,-4 3.2,-8.9 5.1,-13.3 0.2,0.4 0.6,1.4 0.8,1.8 -0.4,2.7 -0.8,5.4 -1.3,8 -0.3,1.3 -0.6,2.6 -1,3.8 -1.3,2.8 -2.3,5.7 -4.2,8.2 -1.4,0.4 -2.9,-0.1 -4.3,-0.1 -2.3,-5.7 -3.1,-12.2 -7,-17.1 -3,-3.8 -9.2,-2.6 -12,0.8 -3.4,3.8 -4.5,9 -6.2,13.7 -2.3,5 -2.5,10.7 -4.1,16.1 -2,-1 -4.9,-1.6 -4.7,-4.4 -0.7,-9.7 -0.9,-19.4 -0.3,-29.1 0.9,4.7 1.8,9.5 3.2,14.1 1.1,-0.1 2.3,-0.1 3.4,-0.1 2.6,-3.7 4.4,-8.1 7.4,-11.6 3.2,-3.7 9.6,-5 13.4,-1.6 3.8,3.3 5.8,8.1 8.1,12.4 1.3,-0.4 3,-0.2 3.7,-1.6 z"
           id="path106"
           inkscape:connector-curvature="0"
           style="fill:#336699;fill-opacity:1;stroke:#000000;stroke-width:0.09375000000000000;stroke-opacity:1" />
        <path
           d="m 184.1,165.6 c 3.5,-7.5 1.9,-16 3.6,-23.9 1.2,11 -0.6,22 0.8,33 -1.3,1.8 -3.5,2.3 -5.5,2.7 -1,-3.7 -1.7,-7.4 -2.5,-11.1 -1.2,-6.6 -3.5,-13 -5.8,-19.3 5,5.2 5.1,13 9.4,18.6 z"
           id="path108"
           inkscape:connector-curvature="0"
           style="fill:#336699;fill-opacity:1;stroke:#000000;stroke-width:0.09375000000000000;stroke-opacity:1" />
        <path
           d="m 106.7,162.8 c 1.9,-2.5 2.9,-5.4 4.2,-8.2 -0.7,3.8 -1.8,7.6 -4.2,10.8 -1.5,-0.7 -3.1,-1.5 -4.3,-2.7 1.4,0 2.9,0.5 4.3,0.1 z"
           id="path118"
           inkscape:connector-curvature="0"
           style="fill:#336699;fill-opacity:1;stroke:#000000;stroke-width:0.09375000000000000;stroke-opacity:1" />
      </g>
    </g>
  </g>
</svg>
