<?xml version="1.0" encoding="UTF-8" standalone="no"?>
<!-- Created with Inkscape (http://www.inkscape.org/) -->

<svg
   xmlns:dc="http://purl.org/dc/elements/1.1/"
   xmlns:cc="http://creativecommons.org/ns#"
   xmlns:rdf="http://www.w3.org/1999/02/22-rdf-syntax-ns#"
   xmlns:svg="http://www.w3.org/2000/svg"
   xmlns="http://www.w3.org/2000/svg"
   xmlns:sodipodi="http://sodipodi.sourceforge.net/DTD/sodipodi-0.dtd"
   xmlns:inkscape="http://www.inkscape.org/namespaces/inkscape"
   width="146.52644"
   height="184.38548"
   id="svg3713"
   version="1.1"
   inkscape:version="0.48.4 r9939"
   sodipodi:docname="pdf.svg">
  <defs
     id="defs3715" />
  <sodipodi:namedview
     id="base"
     pagecolor="#ffffff"
     bordercolor="#666666"
     borderopacity="1.0"
     inkscape:pageopacity="0.0"
     inkscape:pageshadow="2"
     inkscape:zoom="1.9445436"
     inkscape:cx="35.671394"
     inkscape:cy="83.728628"
     inkscape:current-layer="layer1"
     showgrid="true"
     inkscape:document-units="px"
     inkscape:grid-bbox="true"
     fit-margin-top="0"
     fit-margin-left="0"
     fit-margin-right="0"
     fit-margin-bottom="0"
     showguides="true"
     inkscape:guide-bbox="true"
     inkscape:window-width="1024"
     inkscape:window-height="648"
     inkscape:window-x="0"
     inkscape:window-y="58"
     inkscape:window-maximized="1">
    <sodipodi:guide
       orientation="0,1"
       position="129.09091,9.0909091"
       id="guide4761" />
    <sodipodi:guide
       orientation="0,1"
       position="160.72727,122.54545"
       id="guide4763" />
    <sodipodi:guide
       orientation="0,1"
       position="154.90909,140"
       id="guide4765" />
    <sodipodi:guide
       orientation="1,0"
       position="18.545455,140"
       id="guide4767" />
    <sodipodi:guide
       orientation="1,0"
       position="8.3636364,40.626499"
       id="guide4769" />
    <sodipodi:guide
       orientation="1,0"
       position="137.45455,40.626499"
       id="guide4771" />
    <sodipodi:guide
       orientation="0,1"
       position="47.272727,66"
       id="guide4777" />
    <sodipodi:guide
       orientation="1,0"
       position="72.909091,58.909091"
       id="guide4793" />
    <sodipodi:guide
       orientation="0,1"
       position="-21.090909,161.45455"
       id="guide4810" />
    <sodipodi:guide
       orientation="1,0"
       position="-183.27273,186.90909"
       id="guide4812" />
    <sodipodi:guide
       orientation="1,0"
       position="-105.45455,161.45455"
       id="guide4814" />
    <sodipodi:guide
       orientation="1,0"
       position="111.27273,40.626499"
       id="guide4818" />
    <sodipodi:guide
       orientation="0,1"
       position="206.54545,27.636364"
       id="guide4820" />
    <sodipodi:guide
       orientation="0,1"
       position="226.90909,106.18182"
       id="guide4822" />
    <sodipodi:guide
       orientation="1,0"
       position="33.454545,27.636364"
       id="guide4824" />
  </sodipodi:namedview>
  <metadata
     id="metadata3718">
    <rdf:RDF>
      <cc:Work
         rdf:about="">
        <dc:format>image/svg+xml</dc:format>
        <dc:type
           rdf:resource="http://purl.org/dc/dcmitype/StillImage" />
        <dc:title />
      </cc:Work>
    </rdf:RDF>
  </metadata>
  <g
     id="layer1"
     inkscape:label="Layer 1"
     inkscape:groupmode="layer"
     transform="translate(21.837279,71.904794)">
    <path
       style="fill:#336699;stroke:#060709;stroke-width:0.11718750000000000"
       inkscape:connector-curvature="0"
       d="m -21.774779,-50.842294 c 0.125,-11 9.875,-20.75 20.87499955,-20.875 27.00000045,-0.125 54.12500045,0 81.25000345,-0.125 0.25,7 -0.25,14 0.375,20.875 1.375,13 12.75,24.125 25.749996,25.125 6,0.25 12,0 18.125,0 0,37.500003 -0.125,75.000003 0,112.500003 0.125,4.5 -0.125,9.25 -2.25,13.375001 -3.5,7.5 -11.375,12.5 -19.625,12.375 -34.249999,0 -68.374999,0 -102.62499945,0 -11.24999955,0.375 -21.62499955,-9.375 -21.87499955,-20.750001 0,-47.5 0,-95.0000031 0,-142.500003 z"
       id="path6" />
    <path
       style="fill:#336699;stroke:#060709;stroke-width:0.11718750000000000"
       inkscape:connector-curvature="0"
       d="m 87.475224,-71.842294 c 12.5,13 24.749996,26 36.999996,39.125 -5.5,0 -11.125,0.125 -16.625,0 -10.249996,-0.375 -19.374996,-9.125 -20.249996,-19.25 -0.5,-6.625 -0.25,-13.25 -0.125,-19.875 z"
       id="path16" />
    <path
       style="fill:#ffffff;stroke:#ffffff;stroke-width:0.1171875"
       inkscape:connector-curvature="0"
       d="m -12.649779,-9.8422941 c 42.75,0.375 85.375,0.25 127.999999,0 0,33.5000031 0.125,66.8750031 0,100.3750031 0.25,6.75 -5.75,12.875001 -12.5,12.750001 -34.249999,0 -68.499999,0 -102.74999945,0 -6.75000005,0.25 -12.99999955,-6.000001 -12.74999955,-12.750001 0,-33.5 0,-66.875 0,-100.3750031 z"
       id="path92" />
    <path
       style="fill:#ffffff;stroke:#ffffff;stroke-width:0.1171875"
       inkscape:connector-curvature="0"
       d="m 13.100221,16.657709 c 25.5,0 51,0 76.500003,0 0,20 0,39.875 0,59.875 -25.500003,-0.125 -51.000003,0 -76.500003,0 0,-20 0,-39.875 0,-59.875 z"
       id="path120" />
    <path
       style="fill:#fefefe;stroke:#fefefe;stroke-width:0.1171875"
       inkscape:connector-curvature="0"
       d="m 53.600221,51.282709 c 1.5,-1.75 3.375,-3.125 5.625,-3.75 -1.875,5.375 -6.75,9.625 -11.75,12 0.5,-3.625 3.75,-5.75 6.125,-8.25 z"
       id="path142" />
    <path
       style="fill:#fefefe;stroke:#fefefe;stroke-width:0.1171875"
       inkscape:connector-curvature="0"
       d="m 33.100221,60.657709 c 0.625,0.625 1.25,1.25 1.875,1.875 -2.375,2.5 -4.875,5.125 -7.625,7.375 -0.375,-0.5 -1.25,-1.25 -1.75,-1.75 2.375,-2.625 5,-5 7.5,-7.5 z"
       id="path156" />
    <text
       xml:space="preserve"
       style="font-size:40px;font-style:normal;font-variant:normal;font-weight:bold;font-stretch:normal;line-height:125%;letter-spacing:0px;word-spacing:0px;fill:#000000;fill-opacity:1;stroke:none;font-family:Arial;-inkscape-font-specification:Arial Bold"
       x="-3.2918241"
       y="-27.519312"
       id="text3912"
       sodipodi:linespacing="125%"><tspan
         sodipodi:role="line"
         id="tspan3914"
         x="-3.2918241"
         y="-27.519312"
         style="font-size:36px;fill:#eeeeee">PDF</tspan></text>
    <path
       inkscape:connector-curvature="0"
       d="m 87.834207,55.371974 c -1.5354,-1.512675 -4.940316,-2.313675 -10.121841,-2.38185 -3.507525,-0.0387 -7.728975,0.270225 -12.169125,0.8919 -1.988325,-1.147275 -4.03785,-2.395575 -5.64615,-3.899025 -4.326975,-4.040551 -7.9389,-9.649353 -10.1898,-15.816829 0.1467,-0.576 0.271575,-1.08225 0.3879,-1.59885 0,0 2.437425,-13.84425 1.79235,-18.524925 -0.0891,-0.641925 -0.14355,-0.828225 -0.3159,-1.32705 L 51.359916,12.17152 c -0.663075,-1.5291 -1.9629,-3.149325 -4.00095,-3.0609 l -1.22805,-0.0387 c -2.272725,0 -4.1247,1.16235 -4.610925,2.899575 -1.478025,5.448825 0.04707,13.60035 2.81025,24.158025 l -0.7074,1.719675 c -1.97865,4.823551 -4.458375,9.681753 -6.646275,13.967779 l -0.2844,0.557325 c -2.30175,4.504501 -4.390425,8.32815 -6.2838,11.567475 l -1.9548,1.03365 c -0.1422,0.07515 -3.49245,1.847025 -4.27815,2.32245 -6.6663,3.98025 -11.08395,8.498475 -11.816775,12.0843 -0.2331,1.144125 -0.05958,2.608425 1.126575,3.28635 l 1.890675,0.951525 c 0.82035,0.41085 1.685025,0.618975 2.571075,0.618975 4.748175,0 10.260225,-5.91435 17.853525,-19.166175 8.767125,-2.854125 18.74835,-5.226525 27.49635,-6.535125 6.666525,3.7539 14.865975,6.3612 20.040975,6.3612 0.9189,0 1.71135,-0.08775 2.35485,-0.258075 0.992466,-0.2628 1.829016,-0.8289 2.339091,-1.596825 1.004175,-1.5111 1.207575,-3.59235 0.9351,-5.72355 -0.081,-0.632475 -0.586125,-1.414575 -1.13265,-1.9485 z m -70.916166,25.2639 c 0.866025,-2.367225 4.293,-7.04745 9.360675,-11.20005 0.3186,-0.2583 1.1034,-0.9936 1.821825,-1.676475 -5.2992,8.45145 -8.8479,11.819925 -11.1825,12.876525 z m 30.01365,-69.115729 c 1.526175,0 2.39445,3.846825 2.46645,7.453575 0.072,3.60675 -0.771525,6.138 -1.817775,8.0109 -0.866475,-2.7729 -1.285425,-7.14375 -1.285425,-10.0017 0,0 -0.06372,-5.462775 0.63675,-5.462775 v 0 z m -8.952975,49.253404 c 1.063125,-1.90305 2.169225,-3.91005 3.299625,-6.038775 2.75535,-5.21055 4.495275,-9.287551 5.791275,-12.638928 2.577375,4.689452 5.78745,8.676003 9.5607,11.870103 0.470925,0.398475 0.96975,0.798975 1.49355,1.198125 -7.673625,1.5183 -14.30595,3.364875 -20.14515,5.609475 v 0 z m 48.380616,-0.432225 c -0.467091,0.292275 -1.805841,0.46125 -2.667141,0.46125 -2.77965,0 -6.2181,-1.270575 -11.039175,-3.337425 1.85265,-0.137025 3.550725,-0.206775 5.073975,-0.206775 2.787975,0 3.6135,-0.01215 6.339375,0.6831 2.725641,0.69525 2.760516,2.107575 2.292966,2.39985 v 0 z"
       id="path4"
       style="fill:#336699" />
  </g>
</svg>
