<?xml version="1.0" encoding="UTF-8" standalone="no"?>
<svg
   xmlns:dc="http://purl.org/dc/elements/1.1/"
   xmlns:cc="http://creativecommons.org/ns#"
   xmlns:rdf="http://www.w3.org/1999/02/22-rdf-syntax-ns#"
   xmlns:svg="http://www.w3.org/2000/svg"
   xmlns="http://www.w3.org/2000/svg"
   viewBox="0 0 512 512"
   version="1.1"
   id="svg10">
  <metadata
     id="metadata16">
    <rdf:RDF>
      <cc:Work
         rdf:about="">
        <dc:format>image/svg+xml</dc:format>
        <dc:type
           rdf:resource="http://purl.org/dc/dcmitype/StillImage" />
        <dc:title></dc:title>
      </cc:Work>
    </rdf:RDF>
  </metadata>
  <defs
     id="defs14" />
  <path
     d="m451.7 99.72-71.4-71.44c-15.6-15.55-46.3-28.28-68.3-28.28h-240c-22 0-40 18-40 40v432c0 22 18 40 40 40h368c22 0 40-18 40-40v-304c0-22-12.7-52.7-28.3-68.28z"
     id="path2" />
  <path
     d="m448 472c0 4.3-3.7 8-8 8h-368c-4.34 0-8-3.7-8-8v-432c0-4.34 3.66-8 8-8h240c2.4 0 5.1.30 8 .85v127.2h127.1c.6 2.9.9 5.6.9 8v304z"
     id="path4"
     fill="#fff" />
  <path
     fill="#fff"
     d="m429.1 122.3c1.6 1.6 3.1 3.5 4.6 5.7h-81.7v-81.73c2.2 1.52 4.1 3.08 5.7 4.64l71.4 71.39z"
     id="path8" />
  <path
     id="text21"
     d="M 244.94336 215.35156 C 230.88086 215.35156 220.09961 218.47656 212.59961 224.72656 C 205.09961 230.97656 201.34961 239.90885 201.34961 251.52344 C 201.34961 260.79427 204.0319 268.16406 209.39648 273.63281 C 214.81315 279.10156 223.35482 283.08594 235.02148 285.58594 L 246.66211 288.16406 C 253.74544 289.72656 258.45898 291.4974 260.80273 293.47656 C 263.19857 295.45573 264.39648 298.26823 264.39648 301.91406 C 264.39648 305.97656 262.65169 309.10156 259.16211 311.28906 C 255.67253 313.47656 250.64649 314.57031 244.08398 314.57031 C 237.62565 314.57031 230.9069 313.58073 223.92773 311.60156 C 217.00065 309.57031 209.81315 306.57552 202.36523 302.61719 L 202.36523 328.00781 C 209.81315 330.76823 217.26107 332.85156 224.70898 334.25781 C 232.1569 335.66406 239.57878 336.36719 246.97461 336.36719 C 262.65169 336.36719 274.29232 333.24219 281.89648 326.99219 C 289.55274 320.6901 293.38086 311.10677 293.38086 298.24219 C 293.38086 288.45052 290.64648 280.89844 285.17773 275.58594 C 279.70898 270.27344 270.49024 266.3151 257.52148 263.71094 L 244.70898 261.13281 C 238.61523 259.88281 234.39648 258.39844 232.05273 256.67969 C 229.76107 254.90885 228.61523 252.46094 228.61523 249.33594 C 228.61523 245.16927 230.33398 242.09635 233.77148 240.11719 C 237.20898 238.13802 242.52148 237.14844 249.70898 237.14844 C 255.12565 237.14844 260.88086 237.8776 266.97461 239.33594 C 273.06836 240.79427 279.31836 242.95573 285.72461 245.82031 L 285.72461 221.13281 C 278.48503 219.20573 271.47982 217.77344 264.70898 216.83594 C 257.93815 215.84635 251.34961 215.35156 244.94336 215.35156 z M 87.365234 217.46094 L 87.365234 334.10156 L 117.44336 334.10156 L 117.44336 293.63281 L 137.28711 293.63281 C 152.13086 293.63281 163.51107 290.35156 171.42773 283.78906 C 179.39649 277.17448 183.38086 267.7474 183.38086 255.50781 C 183.38086 243.32031 179.39649 233.94531 171.42773 227.38281 C 163.51107 220.76823 152.13086 217.46094 137.28711 217.46094 L 87.365234 217.46094 z M 319.86523 217.46094 L 319.86523 334.10156 L 351.58398 334.10156 C 369.08399 334.10156 382.20898 332.85156 390.95898 330.35156 C 399.70899 327.79948 407.20898 323.5026 413.45898 317.46094 C 418.92773 312.20052 422.99023 306.13281 425.64648 299.25781 C 428.30273 292.33073 429.63086 284.46615 429.63086 275.66406 C 429.63086 266.96615 428.30273 259.17969 425.64648 252.30469 C 422.99023 245.42969 418.92773 239.36198 413.45898 234.10156 C 407.26107 228.0599 399.81315 223.78906 391.11523 221.28906 C 382.4694 218.73698 369.29232 217.46094 351.58398 217.46094 L 319.86523 217.46094 z M 117.44336 239.25781 L 134.08398 239.25781 C 139.91732 239.25781 144.42253 240.66406 147.59961 243.47656 C 150.77669 246.28906 152.36523 250.29948 152.36523 255.50781 C 152.36523 260.71615 150.77669 264.7526 147.59961 267.61719 C 144.42253 270.42969 139.91732 271.83594 134.08398 271.83594 L 117.44336 271.83594 L 117.44336 239.25781 z M 349.94336 240.19531 L 360.72461 240.19531 C 373.06836 240.19531 382.4694 243.21615 388.92773 249.25781 C 395.38607 255.29948 398.61523 264.10156 398.61523 275.66406 C 398.61523 287.27865 395.36003 296.13281 388.84961 302.22656 C 382.39128 308.32031 373.01628 311.36719 360.72461 311.36719 L 349.94336 311.36719 L 349.94336 240.19531 z "
     style="font-style:normal;font-weight:normal;font-size:40px;line-height:1.25;font-family:sans-serif;letter-spacing:0px;word-spacing:0px;fill:#000000;fill-opacity:1;stroke:none" />
</svg>
