<?xml version="1.0" encoding="UTF-8" standalone="no"?>
<svg
   xmlns:dc="http://purl.org/dc/elements/1.1/"
   xmlns:cc="http://creativecommons.org/ns#"
   xmlns:rdf="http://www.w3.org/1999/02/22-rdf-syntax-ns#"
   xmlns:svg="http://www.w3.org/2000/svg"
   xmlns="http://www.w3.org/2000/svg"
   version="1.1"
   id="svg3713"
   height="184.38548"
   width="146.52644">
  <defs
     id="defs3715" />
  <metadata
     id="metadata3718">
    <rdf:RDF>
      <cc:Work
         rdf:about="">
        <dc:format>image/svg+xml</dc:format>
        <dc:type
           rdf:resource="http://purl.org/dc/dcmitype/StillImage" />
        <dc:title></dc:title>
      </cc:Work>
    </rdf:RDF>
  </metadata>
  <g
     transform="translate(21.837279,71.904794)"
     id="layer1">
    <path
       id="path6"
       d="m -21.774779,-50.842294 c 0.125,-11 9.875,-20.75 20.87499955,-20.875 27.00000045,-0.125 54.12500045,0 81.25000345,-0.125 0.25,7 -0.25,14 0.375,20.875 1.375,13 12.75,24.125 25.749996,25.125 6,0.25 12,0 18.125,0 0,37.500003 -0.125,75.000003 0,112.500003 0.125,4.5 -0.125,9.25 -2.25,13.375001 -3.5,7.5 -11.375,12.5 -19.625,12.375 -34.249999,0 -68.374999,0 -102.62499945,0 -11.24999955,0.375 -21.62499955,-9.375 -21.87499955,-20.750001 0,-47.5 0,-95.0000031 0,-142.500003 z"
       style="fill:#336699;stroke:#336699;stroke-width:0.1171875;stroke-opacity:1" />
    <path
       id="path16"
       d="m 87.475224,-71.842294 c 12.5,13 24.749996,26 36.999996,39.125 -5.5,0 -11.125,0.125 -16.625,0 -10.249996,-0.375 -19.374996,-9.125 -20.249996,-19.25 -0.5,-6.625 -0.25,-13.25 -0.125,-19.875 z"
       style="fill:#336699;stroke:#060709;stroke-width:0.11718750000000000" />
    <path
       id="path92"
       d="m -12.649779,-9.8422941 c 42.75,0.375 85.375,0.25 127.999999,0 0,33.5000031 0.125,66.8750031 0,100.3750031 0.25,6.75 -5.75,12.875001 -12.5,12.750001 -34.249999,0 -68.499999,0 -102.74999945,0 -6.75000005,0.25 -12.99999955,-6.000001 -12.74999955,-12.750001 0,-33.5 0,-66.875 0,-100.3750031 z"
       style="fill:#ffffff;stroke:#ffffff;stroke-width:0.1171875" />
    <path
       id="path120"
       d="m 13.100221,16.657709 c 25.5,0 51,0 76.500003,0 0,20 0,39.875 0,59.875 -25.500003,-0.125 -51.000003,0 -76.500003,0 0,-20 0,-39.875 0,-59.875 z"
       style="fill:#ffffff;stroke:#ffffff;stroke-width:0.1171875" />
    <path
       id="path142"
       d="m 53.600221,51.282709 c 1.5,-1.75 3.375,-3.125 5.625,-3.75 -1.875,5.375 -6.75,9.625 -11.75,12 0.5,-3.625 3.75,-5.75 6.125,-8.25 z"
       style="fill:#fefefe;stroke:#fefefe;stroke-width:0.1171875" />
    <path
       id="path156"
       d="m 33.100221,60.657709 c 0.625,0.625 1.25,1.25 1.875,1.875 -2.375,2.5 -4.875,5.125 -7.625,7.375 -0.375,-0.5 -1.25,-1.25 -1.75,-1.75 2.375,-2.625 5,-5 7.5,-7.5 z"
       style="fill:#fefefe;stroke:#fefefe;stroke-width:0.1171875" />
    <text
       id="text3912"
       y="-27.519312"
       x="-3.2918241"
       style="font-style:normal;font-variant:normal;font-weight:bold;font-stretch:normal;line-height:0%;font-family:Arial;-inkscape-font-specification:'Arial Bold';letter-spacing:0px;word-spacing:0px;fill:#000000;fill-opacity:1;stroke:none"
       xml:space="preserve"><tspan
         style="font-size:36px;line-height:1.25;fill:#eeeeee"
         y="-27.519312"
         x="-3.2918241"
         id="tspan3914">PSD</tspan></text>
    <g
       transform="matrix(1.452,0,0,1.452,284.73802,7.5189521)"
       id="g4944" />
    <g
       style="fill:#336699;fill-opacity:1"
       id="g70"
       transform="matrix(2.3656664,0,0,2.292871,-27.752789,6.9374659)">
      <path
         style="fill:#336699;fill-opacity:1"
         id="path2"
         d="M 24.022,31.168 C 23.868,31.071 23.696,31 23.5,31 c -0.501,0 -0.899,0.375 -0.971,0.856 -0.298,0.069 -0.604,0.113 -0.923,0.113 l -1.111,0.006 C 20.482,31.435 20.044,31 19.5,31 c -0.548,0 -0.99,0.441 -0.997,0.987 L 16.221,32 c 0.262,-0.396 0.465,-0.823 0.63,-1.253 0.176,0.152 0.398,0.253 0.649,0.253 0.552,0 1,-0.448 1,-1 0,-0.552 -0.448,-1 -1,-1 -0.063,0 -0.119,0.025 -0.179,0.036 0.072,-0.403 0.118,-0.776 0.143,-1.081 l 0.082,-0.504 c 0.017,-0.165 0.059,-0.321 0.094,-0.479 0.483,-0.071 0.86,-0.47 0.86,-0.972 0,-0.208 -0.079,-0.391 -0.188,-0.551 0.175,-0.243 0.372,-0.467 0.595,-0.665 0.168,0.127 0.367,0.216 0.593,0.216 0.552,0 1,-0.448 1,-1 0,-0.025 -0.012,-0.045 -0.014,-0.07 0.358,-0.103 0.73,-0.174 1.12,-0.174 0.121,0 0.235,0.025 0.354,0.036 l 0.167,0.021 c 0.135,0.017 0.263,0.053 0.394,0.082 C 22.517,23.932 22.5,23.963 22.5,24 c 0,0.552 0.448,1 1,1 0.273,0 0.52,-0.111 0.7,-0.288 0.191,0.156 0.367,0.326 0.527,0.513 0.021,0.025 0.041,0.049 0.062,0.075 -0.178,0.18 -0.289,0.427 -0.289,0.7 0,0.552 0.448,1 1,1 0.035,0 0.065,-0.016 0.099,-0.02 0.01,0.048 0.029,0.092 0.038,0.141 l 0.005,0.026 c 0.041,0.234 0.072,0.471 0.072,0.716 0,0.399 -0.075,0.778 -0.182,1.143 C 25.52,29.006 25.511,29 25.5,29 c -0.552,0 -1,0.448 -1,1 0,0.208 0.078,0.39 0.187,0.55 -0.2,0.229 -0.42,0.438 -0.665,0.618 z m 2.494,-6.921 C 26.509,24.238 26.503,24.23 26.496,24.221 25.891,23.41 25.091,22.756 24.164,22.326 l 2.123,-2.123 2.828,2.828 -2.071,2.07 c -0.151,-0.3 -0.329,-0.585 -0.528,-0.854 z m 4.015,-2.63 -2.828,-2.828 10.259561,-9.7402192 C 52.248155,-3.0258972 53.127929,-3.0372801 40.270219,11.53022 Z M 46.280268,0.85734207 21.891,21.771 c -0.095,-0.004 -0.189,-0.014 -0.285,-0.014 -2.971,0 -5.463,2.125 -5.983,5.016 l -0.108,0.073 -0.02,0.536 c -0.034,0.942 -0.302,4.052 -2.343,4.546 -0.517,0.129 -0.858,0.625 -0.793,1.152 L 12.52,34 h 6.98 l 2.106,-0.03 c 3.367,0 6.107,-2.74 6.107,-6.107 0,-0.193 -0.011,-0.383 -0.029,-0.572 L 48.982999,3.0387325 C 51.458894,0.47841922 49.27207,-2.1791233 46.280268,0.85734207 Z" />
      <circle
         style="fill:#336699;fill-opacity:1"
         id="circle10"
         r="1"
         cy="26"
         cx="21.5" />
      <circle
         style="fill:#336699;fill-opacity:1"
         id="circle12"
         r="1"
         cy="28"
         cx="23.5" />
      <circle
         style="fill:#336699;fill-opacity:1"
         id="circle14"
         r="1"
         cy="28"
         cx="19.5" />
      <circle
         style="fill:#336699;fill-opacity:1"
         id="circle16"
         r="1"
         cy="30"
         cx="21.5" />
    </g>
    <path
       id="path864"
       d="m 33.174153,60.710191 -5.134114,-2.532377 -6.222712,0.108413 -6.647747,4.708292 v 0 l -2.054872,4.720701 -0.97545,6.397563 -3.3636272,9.187211 6.9779942,-0.04028 6.091221,-0.03719 6.219653,-0.36885 4.565357,-2.13253 2.033467,-1.915548 2.583876,-4.785776 0.204877,-6.279792 -2.476855,-5.207323 z"
       style="fill:#336699;fill-opacity:1;stroke:none;stroke-width:1.32188523px;stroke-linecap:butt;stroke-linejoin:miter;stroke-opacity:1" />
  </g>
</svg>
