<?xml version="1.0" encoding="UTF-8" standalone="no"?>
<svg
   xmlns:dc="http://purl.org/dc/elements/1.1/"
   xmlns:cc="http://creativecommons.org/ns#"
   xmlns:rdf="http://www.w3.org/1999/02/22-rdf-syntax-ns#"
   xmlns:svg="http://www.w3.org/2000/svg"
   xmlns="http://www.w3.org/2000/svg"
   id="svg10"
   version="1.1"
   viewBox="0 0 512 512">
  <metadata
     id="metadata16">
    <rdf:RDF>
      <cc:Work
         rdf:about="">
        <dc:format>image/svg+xml</dc:format>
        <dc:type
           rdf:resource="http://purl.org/dc/dcmitype/StillImage" />
        <dc:title></dc:title>
      </cc:Work>
    </rdf:RDF>
  </metadata>
  <defs
     id="defs14" />
  <path
     id="path2"
     d="m451.7 99.72-71.4-71.44c-15.6-15.55-46.3-28.28-68.3-28.28h-240c-22 0-40 18-40 40v432c0 22 18 40 40 40h368c22 0 40-18 40-40v-304c0-22-12.7-52.7-28.3-68.28z" />
  <path
     fill="#fff"
     id="path4"
     d="m448 472c0 4.3-3.7 8-8 8h-368c-4.34 0-8-3.7-8-8v-432c0-4.34 3.66-8 8-8h240c2.4 0 5.1.30 8 .85v127.2h127.1c.6 2.9.9 5.6.9 8v304z" />
  <path
     id="path8"
     d="m429.1 122.3c1.6 1.6 3.1 3.5 4.6 5.7h-81.7v-81.73c2.2 1.52 4.1 3.08 5.7 4.64l71.4 71.39z"
     fill="#fff" />
  <path
     id="text22"
     d="m 135.05711,202.84746 c -15.23438,0 -26.91406,3.38542 -35.03906,10.15625 -8.124999,6.77083 -12.187502,16.44683 -12.187502,29.0293 0,10.0434 2.905165,18.02669 8.716793,23.95117 5.868059,5.92448 15.122829,10.24088 27.761719,12.94922 l 12.60938,2.79297 c 7.67361,1.6927 12.78125,3.61176 15.32031,5.75586 2.59549,2.14409 3.89258,5.19097 3.89258,9.14062 0,4.40104 -1.88954,7.78646 -5.66992,10.15625 -3.78039,2.36979 -9.22657,3.55469 -16.33594,3.55469 -6.99653,0 -14.27518,-1.0727 -21.83594,-3.2168 -7.50434,-2.20052 -15.290799,-5.44423 -23.359373,-9.73242 v 27.50586 c 8.068574,2.99045 16.138453,5.24805 24.207033,6.77148 8.06857,1.52344 16.10894,2.28516 24.12109,2.28516 16.98351,0 29.59419,-3.38542 37.83203,-10.15625 8.29427,-6.82726 12.44141,-17.20985 12.44141,-31.14649 0,-10.60763 -2.96224,-18.78776 -8.88672,-24.54296 -5.92448,-5.75521 -15.91146,-10.04406 -29.96094,-12.86524 l -13.88086,-2.79297 c -6.60156,-1.35416 -11.17187,-2.96224 -13.71093,-4.82422 -2.48264,-1.9184 -3.72461,-4.56966 -3.72461,-7.95507 0,-4.51389 1.86198,-7.84419 5.58593,-9.98829 3.72396,-2.14409 9.47917,-3.21484 17.26563,-3.21484 5.86805,0 12.10351,0.78928 18.70508,2.36914 6.60156,1.57986 13.37239,3.92209 20.3125,7.02539 v -26.74609 c -7.84288,-2.08768 -15.43251,-3.63867 -22.76758,-4.6543 -7.33507,-1.07205 -14.47201,-1.60742 -21.41211,-1.60742 z m 66.09961,2.28516 v 24.6289 h 41.98047 v 101.73047 h 32.58398 V 229.76152 h 41.89453 v -24.6289 z m 133.2168,0 v 126.35937 h 89.79882 V 306.86308 H 366.9575 V 205.13262 Z"
     style="font-style:normal;font-variant:normal;font-weight:bold;font-stretch:normal;font-size:40px;line-height:1.25;font-family:sans-serif;-inkscape-font-specification:'sans-serif Bold';letter-spacing:0px;word-spacing:0px;fill:#000000;fill-opacity:1;stroke:none" />
</svg>
