<?xml version="1.0" encoding="UTF-8" standalone="no"?>
<svg
   xmlns:dc="http://purl.org/dc/elements/1.1/"
   xmlns:cc="http://creativecommons.org/ns#"
   xmlns:rdf="http://www.w3.org/1999/02/22-rdf-syntax-ns#"
   xmlns:svg="http://www.w3.org/2000/svg"
   xmlns="http://www.w3.org/2000/svg"
   version="1.1"
   id="svg3713"
   height="184.38548"
   width="146.52644">
  <defs
     id="defs3715" />
  <metadata
     id="metadata3718">
    <rdf:RDF>
      <cc:Work
         rdf:about="">
        <dc:format>image/svg+xml</dc:format>
        <dc:type
           rdf:resource="http://purl.org/dc/dcmitype/StillImage" />
        <dc:title></dc:title>
      </cc:Work>
    </rdf:RDF>
  </metadata>
  <g
     transform="translate(21.837279,71.904794)"
     id="layer1">
    <path
       id="path6"
       d="m -21.774779,-50.842294 c 0.125,-11 9.875,-20.75 20.87499955,-20.875 27.00000045,-0.125 54.12500045,0 81.25000345,-0.125 0.25,7 -0.25,14 0.375,20.875 1.375,13 12.75,24.125 25.749996,25.125 6,0.25 12,0 18.125,0 0,37.500003 -0.125,75.000003 0,112.500003 0.125,4.5 -0.125,9.25 -2.25,13.375001 -3.5,7.5 -11.375,12.5 -19.625,12.375 -34.249999,0 -68.374999,0 -102.62499945,0 -11.24999955,0.375 -21.62499955,-9.375 -21.87499955,-20.750001 0,-47.5 0,-95.0000031 0,-142.500003 z"
       style="fill:#336699;stroke:#060709;stroke-width:0.11718750000000000" />
    <path
       id="path16"
       d="m 87.475224,-71.842294 c 12.5,13 24.749996,26 36.999996,39.125 -5.5,0 -11.125,0.125 -16.625,0 -10.249996,-0.375 -19.374996,-9.125 -20.249996,-19.25 -0.5,-6.625 -0.25,-13.25 -0.125,-19.875 z"
       style="fill:#336699;stroke:#060709;stroke-width:0.11718750000000000" />
    <path
       id="path92"
       d="m -12.649779,-9.8422941 c 42.75,0.375 85.375,0.25 127.999999,0 0,33.5000031 0.125,66.8750031 0,100.3750031 0.25,6.75 -5.75,12.875001 -12.5,12.750001 -34.249999,0 -68.499999,0 -102.74999945,0 -6.75000005,0.25 -12.99999955,-6.000001 -12.74999955,-12.750001 0,-33.5 0,-66.875 0,-100.3750031 z"
       style="fill:#ffffff;stroke:#ffffff;stroke-width:0.1171875" />
    <path
       id="path120"
       d="m 13.100221,16.657709 c 25.5,0 51,0 76.500003,0 0,20 0,39.875 0,59.875 -25.500003,-0.125 -51.000003,0 -76.500003,0 0,-20 0,-39.875 0,-59.875 z"
       style="fill:#ffffff;stroke:#ffffff;stroke-width:0.1171875" />
    <path
       id="path142"
       d="m 53.600221,51.282709 c 1.5,-1.75 3.375,-3.125 5.625,-3.75 -1.875,5.375 -6.75,9.625 -11.75,12 0.5,-3.625 3.75,-5.75 6.125,-8.25 z"
       style="fill:#fefefe;stroke:#fefefe;stroke-width:0.1171875" />
    <path
       id="path156"
       d="m 33.100221,60.657709 c 0.625,0.625 1.25,1.25 1.875,1.875 -2.375,2.5 -4.875,5.125 -7.625,7.375 -0.375,-0.5 -1.25,-1.25 -1.75,-1.75 2.375,-2.625 5,-5 7.5,-7.5 z"
       style="fill:#fefefe;stroke:#fefefe;stroke-width:0.1171875" />
    <text
       id="text3912"
       y="-27.519312"
       x="-3.2918241"
       style="font-style:normal;font-variant:normal;font-weight:bold;font-stretch:normal;font-size:40px;line-height:125%;font-family:Arial;-inkscape-font-specification:'Arial Bold';letter-spacing:0px;word-spacing:0px;fill:#000000;fill-opacity:1;stroke:none"
       xml:space="preserve"><tspan
         style="font-size:36px;fill:#eeeeee"
         y="-27.519312"
         x="-3.2918241"
         id="tspan3914">TXT</tspan></text>
  </g>
</svg>
