<?xml version="1.0" encoding="UTF-8" standalone="no"?>
<!-- Created with Inkscape (http://www.inkscape.org/) -->

<svg
   xmlns:dc="http://purl.org/dc/elements/1.1/"
   xmlns:cc="http://creativecommons.org/ns#"
   xmlns:rdf="http://www.w3.org/1999/02/22-rdf-syntax-ns#"
   xmlns:svg="http://www.w3.org/2000/svg"
   xmlns="http://www.w3.org/2000/svg"
   xmlns:sodipodi="http://sodipodi.sourceforge.net/DTD/sodipodi-0.dtd"
   xmlns:inkscape="http://www.inkscape.org/namespaces/inkscape"
   width="146.52644"
   height="184.38548"
   id="svg3713"
   version="1.1"
   inkscape:version="0.48.4 r9939"
   sodipodi:docname="xls.svg">
  <defs
     id="defs3715" />
  <sodipodi:namedview
     id="base"
     pagecolor="#ffffff"
     bordercolor="#666666"
     borderopacity="1.0"
     inkscape:pageopacity="0.0"
     inkscape:pageshadow="2"
     inkscape:zoom="2.7499999"
     inkscape:cx="63.80453"
     inkscape:cy="104.68379"
     inkscape:current-layer="g4877"
     showgrid="true"
     inkscape:document-units="px"
     inkscape:grid-bbox="true"
     fit-margin-top="0"
     fit-margin-left="0"
     fit-margin-right="0"
     fit-margin-bottom="0"
     showguides="true"
     inkscape:guide-bbox="true"
     inkscape:window-width="1024"
     inkscape:window-height="648"
     inkscape:window-x="0"
     inkscape:window-y="58"
     inkscape:window-maximized="1">
    <sodipodi:guide
       orientation="0,1"
       position="129.09091,9.0909091"
       id="guide4761" />
    <sodipodi:guide
       orientation="0,1"
       position="160.72727,122.54545"
       id="guide4763" />
    <sodipodi:guide
       orientation="0,1"
       position="154.90909,140"
       id="guide4765" />
    <sodipodi:guide
       orientation="1,0"
       position="18.545455,140"
       id="guide4767" />
    <sodipodi:guide
       orientation="1,0"
       position="8.3636364,40.626499"
       id="guide4769" />
    <sodipodi:guide
       orientation="1,0"
       position="137.45455,40.626499"
       id="guide4771" />
    <sodipodi:guide
       orientation="0,1"
       position="47.272727,66"
       id="guide4777" />
    <sodipodi:guide
       orientation="1,0"
       position="72.909091,58.909091"
       id="guide4793" />
    <sodipodi:guide
       orientation="0,1"
       position="-21.090909,161.45455"
       id="guide4810" />
    <sodipodi:guide
       orientation="1,0"
       position="-183.27273,186.90909"
       id="guide4812" />
    <sodipodi:guide
       orientation="1,0"
       position="-105.45455,161.45455"
       id="guide4814" />
    <sodipodi:guide
       orientation="1,0"
       position="111.27273,40.626499"
       id="guide4818" />
    <sodipodi:guide
       orientation="0,1"
       position="206.54545,27.636364"
       id="guide4820" />
    <sodipodi:guide
       orientation="0,1"
       position="226.90909,106.18182"
       id="guide4822" />
    <sodipodi:guide
       orientation="1,0"
       position="33.454545,27.636364"
       id="guide4824" />
  </sodipodi:namedview>
  <metadata
     id="metadata3718">
    <rdf:RDF>
      <cc:Work
         rdf:about="">
        <dc:format>image/svg+xml</dc:format>
        <dc:type
           rdf:resource="http://purl.org/dc/dcmitype/StillImage" />
        <dc:title />
      </cc:Work>
    </rdf:RDF>
  </metadata>
  <g
     id="layer1"
     inkscape:label="Layer 1"
     inkscape:groupmode="layer"
     transform="translate(21.837279,71.904794)">
    <path
       style="fill:#336699;stroke:#060709;stroke-width:0.11718750000000000"
       inkscape:connector-curvature="0"
       d="m -21.774779,-50.842294 c 0.125,-11 9.875,-20.75 20.87499955,-20.875 27.00000045,-0.125 54.12500045,0 81.25000345,-0.125 0.25,7 -0.25,14 0.375,20.875 1.375,13 12.75,24.125 25.749996,25.125 6,0.25 12,0 18.125,0 0,37.500003 -0.125,75.000003 0,112.500003 0.125,4.5 -0.125,9.25 -2.25,13.375001 -3.5,7.5 -11.375,12.5 -19.625,12.375 -34.249999,0 -68.374999,0 -102.62499945,0 -11.24999955,0.375 -21.62499955,-9.375 -21.87499955,-20.750001 0,-47.5 0,-95.0000031 0,-142.500003 z"
       id="path6" />
    <path
       style="fill:#336699;stroke:#060709;stroke-width:0.11718750000000000"
       inkscape:connector-curvature="0"
       d="m 87.475224,-71.842294 c 12.5,13 24.749996,26 36.999996,39.125 -5.5,0 -11.125,0.125 -16.625,0 -10.249996,-0.375 -19.374996,-9.125 -20.249996,-19.25 -0.5,-6.625 -0.25,-13.25 -0.125,-19.875 z"
       id="path16" />
    <path
       style="fill:#ffffff;stroke:#ffffff;stroke-width:0.1171875"
       inkscape:connector-curvature="0"
       d="m -12.649779,-9.8422941 c 42.75,0.375 85.375,0.25 127.999999,0 0,33.5000031 0.125,66.8750031 0,100.3750031 0.25,6.75 -5.75,12.875001 -12.5,12.750001 -34.249999,0 -68.499999,0 -102.74999945,0 -6.75000005,0.25 -12.99999955,-6.000001 -12.74999955,-12.750001 0,-33.5 0,-66.875 0,-100.3750031 z"
       id="path92" />
    <path
       style="fill:#ffffff;stroke:#ffffff;stroke-width:0.1171875"
       inkscape:connector-curvature="0"
       d="m 13.100221,16.657709 c 25.5,0 51,0 76.500003,0 0,20 0,39.875 0,59.875 -25.500003,-0.125 -51.000003,0 -76.500003,0 0,-20 0,-39.875 0,-59.875 z"
       id="path120" />
    <path
       style="fill:#fefefe;stroke:#fefefe;stroke-width:0.1171875"
       inkscape:connector-curvature="0"
       d="m 53.600221,51.282709 c 1.5,-1.75 3.375,-3.125 5.625,-3.75 -1.875,5.375 -6.75,9.625 -11.75,12 0.5,-3.625 3.75,-5.75 6.125,-8.25 z"
       id="path142" />
    <path
       style="fill:#fefefe;stroke:#fefefe;stroke-width:0.1171875"
       inkscape:connector-curvature="0"
       d="m 33.100221,60.657709 c 0.625,0.625 1.25,1.25 1.875,1.875 -2.375,2.5 -4.875,5.125 -7.625,7.375 -0.375,-0.5 -1.25,-1.25 -1.75,-1.75 2.375,-2.625 5,-5 7.5,-7.5 z"
       id="path156" />
    <text
       xml:space="preserve"
       style="font-size:40px;font-style:normal;font-variant:normal;font-weight:bold;font-stretch:normal;line-height:125%;letter-spacing:0px;word-spacing:0px;fill:#000000;fill-opacity:1;stroke:none;font-family:Arial;-inkscape-font-specification:Arial Bold"
       x="-3.2918241"
       y="-27.519312"
       id="text3912"
       sodipodi:linespacing="125%"><tspan
         sodipodi:role="line"
         id="tspan3914"
         x="-3.2918241"
         y="-27.519312"
         style="font-size:36px;fill:#eeeeee">XLS</tspan></text>
    <g
       id="g4877"
       transform="matrix(1.4826966,0,0,1.4925452,436.70147,183.43833)"
       style="fill:#336699">
      <path
         id="path578"
         d="m -286.64836,-113.00795 c 10.375,-1.625 20.75,-3.625 31.25,-5.25 0,2.125 0,4.25 0,6.375 7.125,0 14.125,-0.125 21.125,0.125 0.25,13 0.125,26 0.125,39 -7.125,0.375 -14.125,0.25 -21.125,0.25 -0.125,2.25 -0.125,4.625 -0.125,7 -10.5,-1.625 -20.875,-3.625 -31.25,-5.25 0,-14.125 0,-28.125 0,-42.25 z"
         inkscape:connector-curvature="0"
         style="fill:#336699;fill-opacity:1;stroke:#000000;stroke-width:0.11718750000000000;stroke-opacity:1" />
      <path
         id="path594"
         d="m -255.27336,-110.00795 c 6.5,0 12.875,0 19.25,0 0,11.875 0,23.75 0,35.625 -6.5,0 -12.875,0 -19.375,0 0,-0.75 0,-2.375 0,-3.125 1.875,0 3.75,0 5.625,0 0,-1 0,-3.125 0.125,-4.125 -2.25,-0.25 -4.5,-0.5 -6.75,-0.75 2,-1.25 4.25,-1.5 6.5,-1.75 0.125,-0.875 0.125,-2.875 0.25,-3.75 -2.25,-0.25 -4.5,-0.5 -6.75,-0.75 2,-1.125 4.25,-1.5 6.5,-1.75 0.125,-0.875 0.125,-2.875 0.25,-3.75 -2.25,-0.25 -4.5,-0.5 -6.75,-0.75 2,-1.125 4.25,-1.5 6.5,-1.75 0.125,-0.875 0.125,-2.875 0.25,-3.75 -2.25,-0.25 -4.5,-0.5 -6.75,-0.75 2,-1.25 4.25,-1.5 6.5,-1.625 0.125,-1 0.125,-3.125 0.125,-4.125 -1.875,0 -3.875,0 -5.75,0 0.125,-0.875 0.25,-2.375 0.25,-3.125 z"
         inkscape:connector-curvature="0"
         style="fill:#eeeeee;stroke:#ffffff;stroke-width:0.11718750000000000" />
      <path
         id="path600"
         d="m -247.89836,-106.88295 c 2.875,0 5.875,0 8.75,0 0,1.5 0,2.875 -0.125,4.375 -2.875,0 -5.625,0 -8.5,0 -0.125,-1.375 -0.125,-2.875 -0.125,-4.375 z"
         inkscape:connector-curvature="0"
         style="fill:#336699;fill-opacity:1;stroke:none;stroke-width:0.11718750000000000;stroke-opacity:1" />
      <path
         id="path608"
         d="m -278.02336,-101.25795 c 1.375,0 2.875,-0.125 4.25,-0.125 0.875,2 1.625,4 2.5,6 1,-2.125 1.875,-4.25 2.75,-6.375 1.5,-0.125 3,-0.125 4.5,-0.125 -1.625,3.25 -3.25,6.625 -4.875,9.875 1.625,3.375 3.375,6.75 5,10.125 -1.625,-0.25 -3.125,-0.375 -4.75,-0.5 -1,-2.125 -1.875,-4.25 -2.875,-6.375 -0.875,2 -1.875,4.125 -2.75,6.25 -1,-0.125 -3,-0.375 -4.125,-0.5 1.5,-3 3,-6 4.5,-9 -1.375,-3.125 -2.875,-6.125 -4.125,-9.25 z"
         inkscape:connector-curvature="0"
         style="fill:#eeeeee;stroke:#fefffe;stroke-width:0.11718750000000000" />
      <path
         id="path618"
         d="m -247.89836,-100.63295 c 2.875,0 5.875,0 8.75,0 0,1.5 0,3 -0.125,4.375 -2.875,0 -5.75,0 -8.5,0 -0.125,-1.375 -0.125,-2.875 -0.125,-4.375 z"
         inkscape:connector-curvature="0"
         style="fill:#336699;fill-opacity:1;stroke:none;stroke-width:0.11718750000000000;stroke-opacity:1" />
      <path
         id="path630"
         d="m -247.89836,-94.38295 c 2.875,0 5.875,0 8.75,0 0,1.5 0,3 -0.125,4.375 -2.875,0 -5.625,0 -8.5,0 -0.125,-1.375 -0.125,-2.875 -0.125,-4.375 z"
         inkscape:connector-curvature="0"
         style="fill:#336699;fill-opacity:1;stroke:none;stroke-width:0.11718750000000000;stroke-opacity:1" />
      <path
         id="path632"
         d="m -247.89836,-88.13295 c 2.875,0 5.875,0 8.75,0 0,1.5 0,3 -0.125,4.375 -2.875,0 -5.625,0 -8.5,0 -0.125,-1.375 -0.125,-2.875 -0.125,-4.375 z"
         inkscape:connector-curvature="0"
         style="fill:#336699;fill-opacity:1;stroke:none;stroke-width:0.11718750000000000;stroke-opacity:1" />
      <path
         id="path636"
         d="m -247.89836,-81.88295 c 2.875,0 5.875,0 8.75,0 0,1.5 0,3 -0.125,4.375 -2.875,0 -5.625,0 -8.5,0 -0.125,-1.375 -0.125,-2.875 -0.125,-4.375 z"
         inkscape:connector-curvature="0"
         style="fill:#336699;fill-opacity:1;stroke:none;stroke-width:0.11718750000000000;stroke-opacity:1" />
    </g>
  </g>
</svg>
