<?xml version="1.0" encoding="UTF-8" standalone="no"?>
<!-- Created with Inkscape (http://www.inkscape.org/) -->

<svg
   xmlns:dc="http://purl.org/dc/elements/1.1/"
   xmlns:cc="http://creativecommons.org/ns#"
   xmlns:rdf="http://www.w3.org/1999/02/22-rdf-syntax-ns#"
   xmlns:svg="http://www.w3.org/2000/svg"
   xmlns="http://www.w3.org/2000/svg"
   xmlns:sodipodi="http://sodipodi.sourceforge.net/DTD/sodipodi-0.dtd"
   xmlns:inkscape="http://www.inkscape.org/namespaces/inkscape"
   width="146.52644"
   height="184.38548"
   id="svg3713"
   version="1.1"
   inkscape:version="0.48.4 r9939"
   sodipodi:docname="zip.svg">
  <defs
     id="defs3715" />
  <sodipodi:namedview
     id="base"
     pagecolor="#ffffff"
     bordercolor="#666666"
     borderopacity="1.0"
     inkscape:pageopacity="0.0"
     inkscape:pageshadow="2"
     inkscape:zoom="3.8890872"
     inkscape:cx="71.089011"
     inkscape:cy="145.05209"
     inkscape:current-layer="g5036"
     showgrid="true"
     inkscape:document-units="px"
     inkscape:grid-bbox="true"
     fit-margin-top="0"
     fit-margin-left="0"
     fit-margin-right="0"
     fit-margin-bottom="0"
     showguides="true"
     inkscape:guide-bbox="true"
     inkscape:window-width="1024"
     inkscape:window-height="648"
     inkscape:window-x="0"
     inkscape:window-y="58"
     inkscape:window-maximized="1">
    <sodipodi:guide
       orientation="0,1"
       position="129.09091,9.0909091"
       id="guide4761" />
    <sodipodi:guide
       orientation="0,1"
       position="160.72727,122.54545"
       id="guide4763" />
    <sodipodi:guide
       orientation="0,1"
       position="154.90909,140"
       id="guide4765" />
    <sodipodi:guide
       orientation="1,0"
       position="18.545455,140"
       id="guide4767" />
    <sodipodi:guide
       orientation="1,0"
       position="8.3636364,40.626499"
       id="guide4769" />
    <sodipodi:guide
       orientation="1,0"
       position="137.45455,40.626499"
       id="guide4771" />
    <sodipodi:guide
       orientation="0,1"
       position="47.272727,66"
       id="guide4777" />
    <sodipodi:guide
       orientation="1,0"
       position="72.909091,58.909091"
       id="guide4793" />
    <sodipodi:guide
       orientation="0,1"
       position="-21.090909,161.45455"
       id="guide4810" />
    <sodipodi:guide
       orientation="1,0"
       position="-183.27273,186.90909"
       id="guide4812" />
    <sodipodi:guide
       orientation="1,0"
       position="-105.45455,161.45455"
       id="guide4814" />
    <sodipodi:guide
       orientation="1,0"
       position="111.27273,40.626499"
       id="guide4818" />
    <sodipodi:guide
       orientation="0,1"
       position="206.54545,27.636364"
       id="guide4820" />
    <sodipodi:guide
       orientation="0,1"
       position="226.90909,106.18182"
       id="guide4822" />
    <sodipodi:guide
       orientation="1,0"
       position="33.454545,27.636364"
       id="guide4824" />
  </sodipodi:namedview>
  <metadata
     id="metadata3718">
    <rdf:RDF>
      <cc:Work
         rdf:about="">
        <dc:format>image/svg+xml</dc:format>
        <dc:type
           rdf:resource="http://purl.org/dc/dcmitype/StillImage" />
        <dc:title />
      </cc:Work>
    </rdf:RDF>
  </metadata>
  <g
     id="layer1"
     inkscape:label="Layer 1"
     inkscape:groupmode="layer"
     transform="translate(21.837279,71.904794)">
    <path
       style="fill:#336699;stroke:#060709;stroke-width:0.11718750000000000"
       inkscape:connector-curvature="0"
       d="m -21.774779,-50.842294 c 0.125,-11 9.875,-20.75 20.87499955,-20.875 27.00000045,-0.125 54.12500045,0 81.25000345,-0.125 0.25,7 -0.25,14 0.375,20.875 1.375,13 12.75,24.125 25.749996,25.125 6,0.25 12,0 18.125,0 0,37.500003 -0.125,75.000003 0,112.500003 0.125,4.5 -0.125,9.25 -2.25,13.375001 -3.5,7.5 -11.375,12.5 -19.625,12.375 -34.249999,0 -68.374999,0 -102.62499945,0 -11.24999955,0.375 -21.62499955,-9.375 -21.87499955,-20.750001 0,-47.5 0,-95.0000031 0,-142.500003 z"
       id="path6" />
    <path
       style="fill:#336699;stroke:#060709;stroke-width:0.11718750000000000"
       inkscape:connector-curvature="0"
       d="m 87.475224,-71.842294 c 12.5,13 24.749996,26 36.999996,39.125 -5.5,0 -11.125,0.125 -16.625,0 -10.249996,-0.375 -19.374996,-9.125 -20.249996,-19.25 -0.5,-6.625 -0.25,-13.25 -0.125,-19.875 z"
       id="path16" />
    <path
       style="fill:#ffffff;stroke:#ffffff;stroke-width:0.1171875"
       inkscape:connector-curvature="0"
       d="m -12.649779,-9.8422941 c 42.75,0.375 85.375,0.25 127.999999,0 0,33.5000031 0.125,66.8750031 0,100.3750031 0.25,6.75 -5.75,12.875001 -12.5,12.750001 -34.249999,0 -68.499999,0 -102.74999945,0 -6.75000005,0.25 -12.99999955,-6.000001 -12.74999955,-12.750001 0,-33.5 0,-66.875 0,-100.3750031 z"
       id="path92" />
    <path
       style="fill:#ffffff;stroke:#ffffff;stroke-width:0.1171875"
       inkscape:connector-curvature="0"
       d="m 13.100221,16.657709 c 25.5,0 51,0 76.500003,0 0,20 0,39.875 0,59.875 -25.500003,-0.125 -51.000003,0 -76.500003,0 0,-20 0,-39.875 0,-59.875 z"
       id="path120" />
    <path
       style="fill:#fefefe;stroke:#fefefe;stroke-width:0.1171875"
       inkscape:connector-curvature="0"
       d="m 53.600221,51.282709 c 1.5,-1.75 3.375,-3.125 5.625,-3.75 -1.875,5.375 -6.75,9.625 -11.75,12 0.5,-3.625 3.75,-5.75 6.125,-8.25 z"
       id="path142" />
    <path
       style="fill:#fefefe;stroke:#fefefe;stroke-width:0.1171875"
       inkscape:connector-curvature="0"
       d="m 33.100221,60.657709 c 0.625,0.625 1.25,1.25 1.875,1.875 -2.375,2.5 -4.875,5.125 -7.625,7.375 -0.375,-0.5 -1.25,-1.25 -1.75,-1.75 2.375,-2.625 5,-5 7.5,-7.5 z"
       id="path156" />
    <text
       xml:space="preserve"
       style="font-size:40px;font-style:normal;font-variant:normal;font-weight:bold;font-stretch:normal;line-height:125%;letter-spacing:0px;word-spacing:0px;fill:#000000;fill-opacity:1;stroke:none;font-family:Arial;-inkscape-font-specification:Arial Bold"
       x="-3.2918241"
       y="-27.519312"
       id="text3912"
       sodipodi:linespacing="125%"><tspan
         sodipodi:role="line"
         id="tspan3914"
         x="-3.2918241"
         y="-27.519312"
         style="font-size:36px;fill:#eeeeee">ZIP</tspan></text>
    <g
       id="g5036"
       transform="translate(267.92918,131.13617)"
       style="fill:#336699">
      <path
         id="path100"
         d="m -193.51318,-134.79319 c 9.5,0 19,0 28.625,0 0,33.5 0,67.124999 0,100.624999 -9.625,0 -19.125,0 -28.625,0 0,-33.5 0,-67.124999 0,-100.624999 z"
         inkscape:connector-curvature="0"
         style="fill:#336699;stroke:#060709;stroke-width:0.11718750000000000" />
      <path
         id="path102"
         d="m -187.26318,-126.79319 c 0.875,-4.75 6.125,-3.125 9.625,-3.125 0.5,0.75 1.25,2.375 1.75,3.125 -3.75,0.75 -7.625,0.75 -11.375,0 z"
         inkscape:connector-curvature="0"
         style="fill:#eeeeee;stroke:#fefefe;stroke-width:0.11718750000000000" />
      <path
         id="path104"
         d="m -182.38818,-124.79319 c 3.5,-0.25 7.125,-0.875 10.5,0.125 1.125,4.375 -4.625,3.125 -7.125,3.25 -2.25,0 -3.375,-1.125 -3.375,-3.375 z"
         inkscape:connector-curvature="0"
         style="fill:#eeeeee;stroke:#f6f6f6;stroke-width:0.11718750000000000" />
      <path
         id="path112"
         d="m -187.13818,-119.91819 c 3.5,-0.125 10.75,-2.75 10.875,2.875 -3.625,-0.375 -10.125,2.375 -10.875,-2.875 z"
         inkscape:connector-curvature="0"
         style="fill:#eeeeee;stroke:#f9f9f9;stroke-width:0.11718750000000000" />
      <path
         id="path118"
         d="m -181.76318,-115.54319 c 3.625,-0.25 7.375,-0.5 10.875,0.875 -2.125,4.25 -7.25,2.375 -11,2.5 0,-0.875 0,-2.5 0.125,-3.375 z"
         inkscape:connector-curvature="0"
         style="fill:#eeeeee;stroke:#fefefe;stroke-width:0.11718750000000000" />
      <path
         id="path122"
         d="m -187.13818,-110.29319 c 3.375,-0.5 6.875,-1.125 10.25,-0.25 1,1.75 0.625,2.875 -1.375,3.375 -3.125,0.375 -8.375,1.125 -8.875,-3.125 z"
         inkscape:connector-curvature="0"
         style="fill:#eeeeee;stroke:#fcfcfc;stroke-width:0.11718750000000000" />
      <path
         id="path126"
         d="m -182.38818,-102.79319 c 0.125,-4.875 6,-3.25 9.25,-3.375 0.5,0.75 1.5,2.25 2,3 -3.625,0.875 -7.5,0.875 -11.25,0.375 z"
         inkscape:connector-curvature="0"
         style="fill:#eeeeee;stroke:#f5f5f6;stroke-width:0.11718750000000000" />
      <path
         id="path130"
         d="m -187.13818,-101.04319 c 3.625,-0.5 7.375,-0.5 11,0 0.125,3.999999 -4,3.499999 -6.625,3.499999 -2.375,0.375 -4.125,-1.125 -4.375,-3.499999 z"
         inkscape:connector-curvature="0"
         style="fill:#eeeeee;stroke:#fbfbfb;stroke-width:0.11718750000000000" />
      <path
         id="path134"
         d="m -182.26318,-93.168191 c -0.625,-4.875 5,-3.5 8.125,-3.5 2.125,0.125 2.875,1.125 2.125,3.25 -3.375,0.875 -6.875,0.375 -10.25,0.25 z"
         inkscape:connector-curvature="0"
         style="fill:#eeeeee;stroke:#f5f5f5;stroke-width:0.11718750000000000" />
      <path
         id="path136"
         d="m -187.13818,-88.668191 c 0.75,-4.875 6.375,-3.125 9.875,-3 0.25,0.75 0.875,2.375 1.125,3.125 -3.625,0.5 -7.375,0.375 -11,-0.125 z"
         inkscape:connector-curvature="0"
         style="fill:#eeeeee;stroke:#fefefe;stroke-width:0.11718750000000000" />
      <path
         id="path140"
         d="m -181.88818,-86.918191 c 3.75,0.125 8.875,-1.625 11,2.5 -3.5,1.5 -7.25,1.125 -10.875,0.875 -0.125,-0.75 -0.125,-2.5 -0.125,-3.375 z"
         inkscape:connector-curvature="0"
         style="fill:#eeeeee;stroke:#fcfcfb;stroke-width:0.11718750000000000" />
      <path
         id="path144"
         d="m -186.26318,-81.793191 c 3.25,-0.875 6.75,-0.375 10.125,0 -0.375,0.75 -0.875,2.25 -1.25,3 -3.125,0.375 -6.5,0.875 -9.5,-0.625 0.125,-0.625 0.375,-1.75 0.625,-2.375 z"
         inkscape:connector-curvature="0"
         style="fill:#eeeeee;stroke:#fefefe;stroke-width:0.11718750000000000" />
      <path
         id="path148"
         d="m -182.38818,-74.168191 c -0.25,-4.125 4.125,-3.5 7,-3.5 2.375,-0.625 3.375,1.5 4.25,3.25 -3.75,0.75 -7.5,0.75 -11.25,0.25 z"
         inkscape:connector-curvature="0"
         style="fill:#eeeeee;stroke:#f6f6f6;stroke-width:0.11718750000000000" />
      <path
         id="path154"
         d="m -187.13818,-72.293191 c 3.625,-0.625 7.375,-0.625 11.125,0 -0.125,4.25 -5,3.25 -7.875,3.25 -2,0 -3.125,-1.125 -3.25,-3.25 z"
         inkscape:connector-curvature="0"
         style="fill:#eeeeee;stroke:#fbfbfb;stroke-width:0.11718750000000000" />
      <path
         id="path158"
         d="m -182.38818,-67.543191 c 3.75,-0.625 7.625,-0.75 11.375,0.25 -1.625,4.625 -6.875,3.125 -10.5,2.5 -0.25,-0.625 -0.625,-2.125 -0.875,-2.75 z"
         inkscape:connector-curvature="0"
         style="fill:#eeeeee;stroke:#f4f4f4;stroke-width:0.11718750000000000" />
      <path
         id="path160"
         d="m -186.38818,-63.043191 c 3.375,0 7.25,-1.375 10.25,0.875 -0.25,0.625 -0.625,1.75 -0.75,2.25 -3.125,0.625 -6.375,0.375 -9.5,0.25 0,-0.875 0,-2.5 0,-3.375 z"
         inkscape:connector-curvature="0"
         style="fill:#eeeeee;stroke:#fcfcfc;stroke-width:0.11718750000000000" />
      <path
         id="path164"
         d="m -181.13818,-56.793191 c 2.25,-1.375 5.125,0.375 5.625,2.625 0.75,3.5 1.25,7.125 1.25,10.75 -0.125,3.625 -5.125,5.75 -7.875,3.5 -3.25,-2 -2,-6.125 -1.75,-9.25 0.625,-2.625 0.375,-5.875 2.75,-7.625 z"
         inkscape:connector-curvature="0"
         style="fill:#eeeeee;stroke:#ffffff;stroke-width:0.11718750000000000" />
    </g>
  </g>
</svg>
